<svg width="29" height="29" viewBox="0 0 29 29" fill="none" xmlns="http://www.w3.org/2000/svg">
<path fill-rule="evenodd" clip-rule="evenodd" d="M0 14.2613C0 22.1375 6.38499 28.5225 14.2613 28.5225C22.1375 28.5225 28.5225 22.1375 28.5225 14.2613C28.5225 6.38498 22.1375 0 14.2613 0C6.38499 0 0 6.38498 0 14.2613ZM17.3869 7C18.7857 7.24228 20.1237 7.66776 21.375 8.25322C23.5629 11.5205 24.65 15.2056 24.2486 19.4559C22.5746 20.7076 20.9508 21.467 19.3543 21.9639C18.959 21.4219 18.6093 20.8443 18.3068 20.2386C18.883 20.0196 19.4364 19.7494 19.9595 19.4342C19.8226 19.3317 19.6873 19.2246 19.555 19.1143C16.4123 20.602 12.9564 20.602 9.77565 19.1143C9.64491 19.2246 9.50958 19.3317 9.37123 19.4342C9.89272 19.7479 10.4446 20.0181 11.0209 20.2371C10.7183 20.8443 10.3671 21.4204 9.9733 21.9624C8.37838 21.4654 6.75608 20.706 5.08209 19.4559C4.73999 15.7895 5.42418 12.0703 7.9481 8.25632C9.19941 7.66933 10.5389 7.24228 11.9392 7C12.1126 7.31059 12.3178 7.72834 12.4562 8.06066C13.9158 7.83704 15.3891 7.83704 16.876 8.06066C17.0144 7.72834 17.2151 7.31059 17.3869 7ZM9.71635 15.2243C9.71635 16.3097 10.4994 17.2011 11.4542 17.2011C12.4258 17.2011 13.1936 16.3097 13.1921 15.2243C13.2088 14.1372 12.4258 13.2458 11.4542 13.2458C10.4827 13.2458 9.71635 14.1388 9.71635 15.2243ZM16.1386 15.2243C16.1386 16.3097 16.9217 17.2011 17.8765 17.2011C18.848 17.2011 19.6143 16.3097 19.6143 15.2243C19.6311 14.1372 18.848 13.2458 17.8765 13.2458C16.9049 13.2458 16.1386 14.1388 16.1386 15.2243Z" fill="white"/>
</svg>
