<svg width="121" height="36" viewBox="0 0 121 36" fill="none" xmlns="http://www.w3.org/2000/svg">
<path d="M116.519 35.8286H4.48148C2.01779 35.8286 0 33.8588 0 31.4536V5.20362C0 2.79846 2.01779 0.828616 4.48148 0.828616H116.519C118.982 0.828616 121 2.79846 121 5.20362V31.4536C121 33.8588 118.982 35.8286 116.519 35.8286Z" fill="black"/>
<path d="M116.519 1.52971C118.593 1.52971 120.282 3.17799 120.282 5.20362V31.4536C120.282 33.4792 118.593 35.1275 116.519 35.1275H4.48148C2.40656 35.1275 0.718157 33.4792 0.718157 31.4536V5.20362C0.718157 3.17799 2.40656 1.52971 4.48148 1.52971H116.519ZM116.519 0.828616H4.48148C2.01779 0.828616 0 2.79846 0 5.20362V31.4536C0 33.8588 2.01779 35.8286 4.48148 35.8286H116.519C118.982 35.8286 121 33.8588 121 31.4536V5.20362C121 2.79846 118.982 0.828616 116.519 0.828616Z" fill="#A6A6A6"/>
<path d="M9.35267 7.42478C9.08938 7.69385 8.93701 8.11275 8.93701 8.65525V28.0059C8.93701 28.5484 9.08938 28.9673 9.35267 29.2363L9.41765 29.2954L20.525 18.4563V18.2004L9.41765 7.36135L9.35267 7.42478Z" fill="url(#paint0_linear_427_947)"/>
<path d="M24.2232 22.0713L20.5249 18.4564V18.2005L24.2277 14.5857L24.3106 14.6327L28.6958 17.0685C29.9472 17.7597 29.9472 18.8972 28.6958 19.5929L24.3106 22.0243L24.2232 22.0713Z" fill="url(#paint1_linear_427_947)"/>
<path d="M24.3106 22.024L20.5249 18.3283L9.35254 29.2362C9.7682 29.6628 10.446 29.7142 11.2168 29.2876L24.3106 22.024Z" fill="url(#paint2_linear_427_947)"/>
<path d="M24.3106 14.6323L11.2168 7.36875C10.446 6.94657 9.7682 6.99797 9.35254 7.42453L20.5249 18.3281L24.3106 14.6323Z" fill="url(#paint3_linear_427_947)"/>
<path d="M42.5005 9.79185C42.5005 10.5225 42.2764 11.1076 41.835 11.544C41.3275 12.0614 40.6664 12.3217 39.8564 12.3217C39.0822 12.3217 38.4212 12.057 37.879 11.5353C37.3356 11.0059 37.0645 10.3562 37.0645 9.57857C37.0645 8.80092 37.3356 8.15123 37.879 7.62623C38.4212 7.10014 39.0822 6.83545 39.8564 6.83545C40.2418 6.83545 40.6093 6.91311 40.96 7.05748C41.3095 7.20295 41.5941 7.39982 41.8003 7.64264L41.3319 8.1042C40.9723 7.68967 40.4827 7.48514 39.8564 7.48514C39.2918 7.48514 38.8021 7.67764 38.3865 8.06592C37.9753 8.45529 37.7692 8.95951 37.7692 9.57857C37.7692 10.1976 37.9753 10.7062 38.3865 11.0956C38.8021 11.4795 39.2918 11.6764 39.8564 11.6764C40.4558 11.6764 40.96 11.4795 41.3577 11.0912C41.6199 10.8342 41.7689 10.4798 41.8081 10.027H39.8564V9.39482H42.4602C42.4915 9.53154 42.5005 9.66389 42.5005 9.79185Z" fill="white" stroke="white" stroke-width="0.130667" stroke-miterlimit="10"/>
<path d="M46.6308 7.59978H44.1851V9.26228H46.39V9.89447H44.1851V11.557H46.6308V12.2012H43.4927V6.95557H46.6308V7.59978Z" fill="white" stroke="white" stroke-width="0.130667" stroke-miterlimit="10"/>
<path d="M49.5461 12.2012H48.8537V7.59978H47.3535V6.95557H51.0474V7.59978H49.5461V12.2012Z" fill="white" stroke="white" stroke-width="0.130667" stroke-miterlimit="10"/>
<path d="M53.7207 12.2012V6.95557H54.412V12.2012H53.7207Z" fill="white" stroke="white" stroke-width="0.130667" stroke-miterlimit="10"/>
<path d="M57.4767 12.2012H56.79V7.59978H55.2842V6.95557H58.9825V7.59978H57.4767V12.2012Z" fill="white" stroke="white" stroke-width="0.130667" stroke-miterlimit="10"/>
<path d="M65.9756 11.5265C65.4456 12.057 64.7891 12.3217 64.0059 12.3217C63.2183 12.3217 62.5618 12.057 62.0318 11.5265C61.503 10.9972 61.2397 10.3475 61.2397 9.57857C61.2397 8.80967 61.503 8.15998 62.0318 7.63061C62.5618 7.10014 63.2183 6.83545 64.0059 6.83545C64.7846 6.83545 65.4411 7.10014 65.9711 7.63498C66.5044 8.16873 66.7677 8.81404 66.7677 9.57857C66.7677 10.3475 66.5044 10.9972 65.9756 11.5265ZM62.5439 11.0869C62.9427 11.4795 63.4278 11.6764 64.0059 11.6764C64.5796 11.6764 65.0692 11.4795 65.4635 11.0869C65.8613 10.6942 66.0629 10.19 66.0629 9.57857C66.0629 8.96717 65.8613 8.46295 65.4635 8.07029C65.0692 7.67764 64.5796 7.48076 64.0059 7.48076C63.4278 7.48076 62.9427 7.67764 62.5439 8.07029C62.1461 8.46295 61.9445 8.96717 61.9445 9.57857C61.9445 10.19 62.1461 10.6942 62.5439 11.0869Z" fill="white" stroke="white" stroke-width="0.130667" stroke-miterlimit="10"/>
<path d="M67.7388 12.2012V6.95557H68.579L71.1918 11.0353H71.222L71.1918 10.0268V6.95557H71.883V12.2012H71.1615L68.4256 7.92025H68.3953L68.4256 8.93307V12.2012H67.7388Z" fill="white" stroke="white" stroke-width="0.130667" stroke-miterlimit="10"/>
<path d="M61.0698 19.8616C58.9646 19.8616 57.2449 21.4257 57.2449 23.5837C57.2449 25.7241 58.9646 27.3046 61.0698 27.3046C63.1795 27.3046 64.8992 25.7241 64.8992 23.5837C64.8992 21.4257 63.1795 19.8616 61.0698 19.8616ZM61.0698 25.839C59.9147 25.839 58.9209 24.9082 58.9209 23.5837C58.9209 22.2416 59.9147 21.3272 61.0698 21.3272C62.2249 21.3272 63.2232 22.2416 63.2232 23.5837C63.2232 24.9082 62.2249 25.839 61.0698 25.839ZM52.7242 19.8616C50.6145 19.8616 48.8992 21.4257 48.8992 23.5837C48.8992 25.7241 50.6145 27.3046 52.7242 27.3046C54.8327 27.3046 56.5491 25.7241 56.5491 23.5837C56.5491 21.4257 54.8327 19.8616 52.7242 19.8616ZM52.7242 25.839C51.5679 25.839 50.5708 24.9082 50.5708 23.5837C50.5708 22.2416 51.5679 21.3272 52.7242 21.3272C53.8793 21.3272 54.873 22.2416 54.873 23.5837C54.873 24.9082 53.8793 25.839 52.7242 25.839ZM42.7932 21.0024V22.584H46.6618C46.5487 23.4677 46.2462 24.1174 45.7824 24.5702C45.2177 25.1171 44.3382 25.7241 42.7932 25.7241C40.4124 25.7241 38.5481 23.8483 38.5481 21.5241C38.5481 19.1999 40.4124 17.3241 42.7932 17.3241C44.0805 17.3241 45.0171 17.8152 45.7084 18.4518L46.8501 17.3373C45.8832 16.436 44.597 15.7437 42.7932 15.7437C39.5285 15.7437 36.7847 18.3369 36.7847 21.5241C36.7847 24.7113 39.5285 27.3046 42.7932 27.3046C44.5578 27.3046 45.8832 26.7402 46.9251 25.6815C47.9928 24.6391 48.3256 23.1735 48.3256 21.9901C48.3256 21.6226 48.2942 21.2846 48.2382 21.0024H42.7932ZM83.4021 22.2285C83.0873 21.3962 82.116 19.8616 80.1374 19.8616C78.1767 19.8616 76.5444 21.3699 76.5444 23.5837C76.5444 25.6683 78.1599 27.3046 80.3256 27.3046C82.0767 27.3046 83.0873 26.2622 83.503 25.6552L82.2033 24.8097C81.7698 25.4288 81.1793 25.839 80.3256 25.839C79.4775 25.839 78.8691 25.4594 78.4792 24.7113L83.578 22.6518L83.4021 22.2285ZM78.2036 23.4677C78.1599 22.0327 79.3453 21.2977 80.1945 21.2977C80.86 21.2977 81.4247 21.6226 81.6129 22.0874L78.2036 23.4677ZM74.0594 27.0782H75.7354V16.1407H74.0594V27.0782ZM71.3145 20.6907H71.2584C70.882 20.2554 70.1639 19.8616 69.2541 19.8616C67.345 19.8616 65.5995 21.4979 65.5995 23.5957C65.5995 25.6815 67.345 27.3046 69.2541 27.3046C70.1639 27.3046 70.882 26.9076 71.2584 26.4591H71.3145V26.9929C71.3145 28.4158 70.5358 29.1804 69.2799 29.1804C68.2559 29.1804 67.6206 28.4585 67.3584 27.8515L65.9008 28.4454C66.321 29.4319 67.4335 30.646 69.2799 30.646C71.245 30.646 72.9032 29.5172 72.9032 26.7708V20.088H71.3145V20.6907ZM69.3975 25.839C68.2424 25.839 67.2755 24.8951 67.2755 23.5957C67.2755 22.2843 68.2424 21.3272 69.3975 21.3272C70.5358 21.3272 71.4332 22.2843 71.4332 23.5957C71.4332 24.8951 70.5358 25.839 69.3975 25.839ZM91.2492 16.1407H87.2405V27.0782H88.9121V22.934H91.2492C93.1057 22.934 94.9263 21.6226 94.9263 19.5368C94.9263 17.4521 93.1012 16.1407 91.2492 16.1407ZM91.2929 21.4126H88.9121V17.6621H91.2929C92.541 17.6621 93.2536 18.6738 93.2536 19.5368C93.2536 20.3833 92.541 21.4126 91.2929 21.4126ZM101.626 19.8408C100.418 19.8408 99.1624 20.3615 98.6459 21.5154L100.129 22.1224C100.449 21.5154 101.036 21.3185 101.656 21.3185C102.523 21.3185 103.403 21.8271 103.416 22.7251V22.8399C103.114 22.6693 102.466 22.4166 101.67 22.4166C100.072 22.4166 98.4442 23.2752 98.4442 24.8776C98.4442 26.3432 99.7528 27.2871 101.224 27.2871C102.349 27.2871 102.969 26.7916 103.359 26.2152H103.416V27.0607H105.031V22.8651C105.031 20.9258 103.548 19.8408 101.626 19.8408ZM101.424 25.8346C100.878 25.8346 100.116 25.5699 100.116 24.9082C100.116 24.0616 101.066 23.7368 101.888 23.7368C102.624 23.7368 102.969 23.8954 103.416 24.1043C103.285 25.1171 102.392 25.8346 101.424 25.8346ZM110.913 20.0804L108.991 24.8218H108.934L106.948 20.0804H105.145L108.13 26.7063L106.427 30.3933H108.174L112.773 20.0804H110.913ZM95.845 27.0782H97.521V16.1407H95.845V27.0782Z" fill="white"/>
<defs>
<linearGradient id="paint0_linear_427_947" x1="19.5388" y1="28.2074" x2="4.85844" y2="13.1697" gradientUnits="userSpaceOnUse">
<stop stop-color="#00A0FF"/>
<stop offset="0.0066" stop-color="#00A1FF"/>
<stop offset="0.2601" stop-color="#00BEFF"/>
<stop offset="0.5122" stop-color="#00D2FF"/>
<stop offset="0.7604" stop-color="#00DFFF"/>
<stop offset="1" stop-color="#00E3FF"/>
</linearGradient>
<linearGradient id="paint1_linear_427_947" x1="30.3254" y1="18.3273" x2="8.63777" y2="18.3273" gradientUnits="userSpaceOnUse">
<stop stop-color="#FFE000"/>
<stop offset="0.4087" stop-color="#FFBD00"/>
<stop offset="0.7754" stop-color="#FFA500"/>
<stop offset="1" stop-color="#FF9C00"/>
</linearGradient>
<linearGradient id="paint2_linear_427_947" x1="22.252" y1="16.3192" x2="2.34428" y2="-4.07311" gradientUnits="userSpaceOnUse">
<stop stop-color="#FF3A44"/>
<stop offset="1" stop-color="#C31162"/>
</linearGradient>
<linearGradient id="paint3_linear_427_947" x1="6.54023" y1="35.674" x2="15.4299" y2="26.568" gradientUnits="userSpaceOnUse">
<stop stop-color="#32A071"/>
<stop offset="0.0685" stop-color="#2DA771"/>
<stop offset="0.4762" stop-color="#15CF74"/>
<stop offset="0.8009" stop-color="#06E775"/>
<stop offset="1" stop-color="#00F076"/>
</linearGradient>
</defs>
</svg>
