<svg width="29" height="29" viewBox="0 0 29 29" fill="none" xmlns="http://www.w3.org/2000/svg">
<g id="Instagram">
<path id="Combined-Shape" fill-rule="evenodd" clip-rule="evenodd" d="M14.628 0C6.75168 0 0.366699 6.38498 0.366699 14.2613C0.366699 22.1375 6.75168 28.5225 14.628 28.5225C22.5042 28.5225 28.8892 22.1375 28.8892 14.2613C28.8892 6.38498 22.5042 0 14.628 0ZM11.4925 6.70121C12.3038 6.66429 12.563 6.65526 14.6287 6.65526H14.6263C16.6926 6.65526 16.9509 6.66429 17.7623 6.70121C18.572 6.73829 19.125 6.86648 19.6099 7.05457C20.1106 7.24869 20.5337 7.50856 20.9568 7.93165C21.3799 8.35442 21.6398 8.77878 21.8347 9.27904C22.0217 9.76266 22.15 10.3154 22.188 11.1251C22.2245 11.9364 22.234 12.1957 22.234 14.2613C22.234 16.327 22.2245 16.5856 22.188 17.3969C22.15 18.2064 22.0217 18.7592 21.8347 19.243C21.6398 19.7431 21.3799 20.1675 20.9568 20.5902C20.5342 21.0133 20.1105 21.2738 19.6104 21.4681C19.1264 21.6562 18.5731 21.7844 17.7634 21.8215C16.952 21.8584 16.6936 21.8674 14.6278 21.8674C12.5622 21.8674 12.3031 21.8584 11.4918 21.8215C10.6823 21.7844 10.1294 21.6562 9.64545 21.4681C9.14551 21.2738 8.72116 21.0133 8.29854 20.5902C7.87561 20.1675 7.61574 19.7431 7.42131 19.2429C7.23337 18.7592 7.10518 18.2065 7.06794 17.3968C7.03118 16.5855 7.02199 16.327 7.02199 14.2613C7.02199 12.1957 7.03149 11.9363 7.06778 11.1249C7.10423 10.3155 7.23258 9.76266 7.42115 9.27888C7.61605 8.77878 7.87593 8.35442 8.29902 7.93165C8.72179 7.50872 9.14614 7.24885 9.6464 7.05457C10.13 6.86648 10.6827 6.73829 11.4925 6.70121Z" fill="white"/>
<path id="Combined-Shape_2" fill-rule="evenodd" clip-rule="evenodd" d="M13.9461 8.02583C14.0786 8.02562 14.2212 8.02568 14.375 8.02575L14.6285 8.02583C16.6593 8.02583 16.9 8.03312 17.702 8.06956C18.4436 8.10347 18.846 8.22739 19.1142 8.3315C19.4691 8.46936 19.7222 8.63416 19.9882 8.90037C20.2544 9.16658 20.4192 9.42012 20.5574 9.77507C20.6615 10.0429 20.7856 10.4454 20.8194 11.1869C20.8558 11.9888 20.8637 12.2296 20.8637 14.2595C20.8637 16.2894 20.8558 16.5302 20.8194 17.332C20.7854 18.0736 20.6615 18.4761 20.5574 18.7439C20.4196 19.0989 20.2544 19.3516 19.9882 19.6177C19.722 19.8839 19.4693 20.0487 19.1142 20.1865C18.8464 20.2911 18.4436 20.4147 17.702 20.4486C16.9002 20.4851 16.6593 20.493 14.6285 20.493C12.5975 20.493 12.3568 20.4851 11.555 20.4486C10.8134 20.4144 10.4109 20.2905 10.1426 20.1864C9.78767 20.0485 9.53414 19.8837 9.26792 19.6175C9.00171 19.3513 8.83691 19.0984 8.69874 18.7433C8.59463 18.4755 8.47055 18.073 8.4368 17.3314C8.40036 16.5296 8.39307 16.2887 8.39307 14.2576C8.39307 12.2264 8.40036 11.9869 8.4368 11.185C8.47071 10.4435 8.59463 10.041 8.69874 9.77285C8.8366 9.4179 9.00171 9.16436 9.26792 8.89815C9.53414 8.63194 9.78767 8.46714 10.1426 8.32896C10.4107 8.22438 10.8134 8.10078 11.555 8.06671C12.2566 8.03502 12.5286 8.02551 13.9461 8.02393V8.02583ZM18.6886 9.28875C18.1847 9.28875 17.7758 9.69711 17.7758 10.2012C17.7758 10.7051 18.1847 11.1139 18.6886 11.1139C19.1925 11.1139 19.6013 10.7051 19.6013 10.2012C19.6013 9.69726 19.1925 9.28844 18.6886 9.28844V9.28875ZM10.7225 14.2612C10.7225 12.1042 12.4713 10.3553 14.6284 10.3552C16.7855 10.3552 18.5339 12.1041 18.5339 14.2612C18.5339 16.4184 16.7856 18.1665 14.6285 18.1665C12.4714 18.1665 10.7225 16.4184 10.7225 14.2612Z" fill="white"/>
<path id="Shape" d="M14.6286 11.7261C16.0288 11.7261 17.164 12.8611 17.164 14.2614C17.164 15.6616 16.0288 16.7968 14.6286 16.7968C13.2283 16.7968 12.0933 15.6616 12.0933 14.2614C12.0933 12.8611 13.2283 11.7261 14.6286 11.7261Z" fill="white"/>
</g>
</svg>
