<?xml version="1.0" encoding="utf-8"?>
<!-- Generator: Adobe Illustrator 26.0.1, SVG Export Plug-In . SVG Version: 6.00 Build 0)  -->
<svg version="1.1" id="Layer_1" xmlns="http://www.w3.org/2000/svg" xmlns:xlink="http://www.w3.org/1999/xlink" x="0px" y="0px"
	 viewBox="0 0 1000 1000" style="enable-background:new 0 0 1000 1000;" xml:space="preserve">
<style type="text/css">
	.st0{fill:#F05E23;}
</style>
<g>
	<g>
		<polygon class="st0" points="506.56,210.37 774.02,672.67 508.12,553.79 507.69,458.93 558.82,475.9 507.38,391.82 		"/>
		<polygon class="st0" points="493.53,210.37 226.07,672.67 491.97,553.79 492.4,458.93 441.27,475.9 492.7,391.82 		"/>
	</g>
	<g>
		<path class="st0" d="M499.18,863.73c-48.98,0-96.49-9.59-141.23-28.51c-43.2-18.27-82.01-44.43-115.32-77.75
			c-33.32-33.32-59.48-72.12-77.75-115.33c-18.92-44.73-28.51-92.25-28.51-141.23c0-48.98,9.59-96.49,28.51-141.23
			c18.27-43.21,44.43-82.01,77.75-115.32c33.32-33.32,72.12-59.48,115.32-77.75c44.73-18.92,92.25-28.51,141.23-28.51
			s96.49,9.59,141.23,28.51c43.21,18.27,82.01,44.43,115.32,77.75c33.32,33.32,59.48,72.12,77.75,115.32
			C852.4,404.41,862,451.93,862,500.91c0,48.98-9.59,96.49-28.51,141.23c-18.27,43.21-44.43,82.01-77.75,115.33
			c-33.32,33.32-72.12,59.48-115.32,77.75C595.67,854.13,548.15,863.73,499.18,863.73z M499.18,150.55
			c-193.19,0-350.35,157.17-350.35,350.35c0,193.19,157.17,350.35,350.35,350.35s350.35-157.17,350.35-350.35
			C849.53,307.72,692.36,150.55,499.18,150.55z"/>
	</g>
	<g>
		<path class="st0" d="M496.59,918.95L135.35,707.93l2.13-418.35L500.84,82.24l361.24,211.02l-2.13,418.35L496.59,918.95z
			 M147.85,700.79l348.81,203.76l350.86-200.2l2.05-403.96L500.77,96.64l-350.86,200.2L147.85,700.79z"/>
	</g>
</g>
</svg>
