<svg width="30" height="29" viewBox="0 0 30 29" fill="none" xmlns="http://www.w3.org/2000/svg">
<path fill-rule="evenodd" clip-rule="evenodd" d="M0.769043 14.2613C0.769043 22.1375 7.15403 28.5225 15.0303 28.5225C22.9066 28.5225 29.2916 22.1375 29.2916 14.2613C29.2916 6.38498 22.9066 0 15.0303 0C7.15403 0 0.769043 6.38498 0.769043 14.2613ZM12.4158 20.7977L12.6584 17.1624L12.6582 17.1622L19.2712 11.1945C19.5614 10.9369 19.2078 10.8113 18.8226 11.0449L10.6612 16.1939L7.13592 15.0936C6.37462 14.8605 6.36916 14.3373 7.30685 13.9612L21.044 8.66423C21.6714 8.37938 22.277 8.81492 22.0375 9.7752L19.698 20.7995C19.5347 21.5829 19.0613 21.7703 18.4055 21.4084L14.8418 18.7755L13.1288 20.4411C13.1234 20.4464 13.118 20.4516 13.1127 20.4568C12.9211 20.6434 12.7626 20.7977 12.4158 20.7977Z" fill="white"/>
</svg>
