<svg width="30" height="29" viewBox="0 0 30 29" fill="none" xmlns="http://www.w3.org/2000/svg">
<g id="Twitter">
<path id="Combined-Shape" fill-rule="evenodd" clip-rule="evenodd" d="M15.2295 0C7.35325 0 0.968262 6.38498 0.968262 14.2613C0.968262 22.1375 7.35325 28.5225 15.2295 28.5225C23.1058 28.5225 29.4908 22.1375 29.4908 14.2613C29.4908 6.38498 23.1058 0 15.2295 0ZM14.8323 12.0852L14.8024 11.5917C14.7126 10.3127 15.5007 9.14452 16.7476 8.69133C17.2065 8.53019 17.9846 8.51005 18.4933 8.65104C18.6928 8.71147 19.0719 8.91288 19.3412 9.09416L19.83 9.4265L20.3687 9.25529C20.668 9.16466 21.067 9.01359 21.2465 8.91288C21.4161 8.82225 21.5657 8.77189 21.5657 8.80211C21.5657 8.97331 21.1967 9.55742 20.8874 9.87969C20.4684 10.3329 20.5882 10.3732 21.4361 10.071C21.9448 9.89983 21.9548 9.89983 21.855 10.0912C21.7952 10.1919 21.4859 10.5444 21.1568 10.8666C20.5981 11.4205 20.5682 11.481 20.5682 11.9442C20.5682 12.6592 20.229 14.1497 19.8899 14.9655C19.2614 16.4962 17.9147 18.0774 16.568 18.873C14.6727 19.9908 12.1489 20.2728 10.0241 19.6182C9.31588 19.3966 8.09888 18.8327 8.09888 18.732C8.09888 18.7018 8.46797 18.6615 8.91686 18.6514C9.85456 18.6313 10.7923 18.3694 11.5903 17.9062L12.129 17.5839L11.5105 17.3724C10.6326 17.0703 9.84458 16.3754 9.64507 15.7208C9.58522 15.5093 9.60517 15.4992 10.1638 15.4992L10.7424 15.4892L10.2536 15.2575C9.675 14.9655 9.1463 14.472 8.88694 13.9685C8.6974 13.6059 8.45799 12.6895 8.52782 12.619C8.54777 12.5887 8.75726 12.6492 8.99667 12.7297C9.68497 12.9815 9.77475 12.9211 9.37574 12.4981C8.62758 11.7327 8.39814 10.5947 8.75726 9.51714L8.92684 9.03374L9.58522 9.68834C10.9319 11.0076 12.518 11.7931 14.3335 12.0248L14.8323 12.0852Z" fill="white"/>
</g>
</svg>
