<svg width="30" height="29" viewBox="0 0 30 29" fill="none" xmlns="http://www.w3.org/2000/svg">
<g id="Youtube">
<path id="Combined-Shape" fill-rule="evenodd" clip-rule="evenodd" d="M14.8272 0C6.9509 0 0.565918 6.38498 0.565918 14.2613C0.565918 22.1375 6.9509 28.5225 14.8272 28.5225C22.7035 28.5225 29.0884 22.1375 29.0884 14.2613C29.0884 6.38498 22.7035 0 14.8272 0ZM20.7703 9.35855C21.4249 9.53817 21.9404 10.0674 22.1153 10.7395C22.4332 11.9575 22.4332 14.4989 22.4332 14.4989C22.4332 14.4989 22.4332 17.0403 22.1153 18.2584C21.9404 18.9305 21.4249 19.4597 20.7703 19.6394C19.5841 19.9658 14.8272 19.9658 14.8272 19.9658C14.8272 19.9658 10.0702 19.9658 8.88397 19.6394C8.22942 19.4597 7.71394 18.9305 7.539 18.2584C7.22119 17.0403 7.22119 14.4989 7.22119 14.4989C7.22119 14.4989 7.22119 11.9575 7.539 10.7395C7.71394 10.0674 8.22942 9.53817 8.88397 9.35855C10.0702 9.03213 14.8272 9.03213 14.8272 9.03213C14.8272 9.03213 19.5841 9.03213 20.7703 9.35855Z" fill="white"/>
<path id="Fill-2" d="M13.4009 17.1136V12.3599L17.2039 14.7368L13.4009 17.1136Z" fill="white"/>
</g>
</svg>
